<svg width="24" height="27" viewBox="0 0 24 27" fill="#fff" xmlns="http://www.w3.org/2000/svg">
<path d="M11.9974 24.9158C10.944 24.9143 9.92031 24.5561 9.08418 23.8965C8.24805 23.2369 7.64592 22.3124 7.37063 21.2657C6.36235 21.5074 5.30516 21.4065 4.35728 20.978C3.4094 20.5495 2.62182 19.8165 2.11244 18.8888C1.60306 17.961 1.39927 16.8884 1.53157 15.8315C1.66388 14.7745 2.12516 13.7901 2.84638 13.0256C2.12325 12.2594 1.66132 11.2722 1.53004 10.2126C1.39877 9.15289 1.60525 8.07798 2.11843 7.14948C2.63162 6.22098 3.42377 5.48907 4.37577 5.06383C5.32777 4.63859 6.38815 4.54299 7.39746 4.79141C7.69572 3.7745 8.30409 2.88344 9.13254 2.2501C9.96099 1.61676 10.9655 1.27479 11.9974 1.27479C13.0294 1.27479 14.0339 1.61676 14.8623 2.2501C15.6908 2.88344 16.2991 3.7745 16.5974 4.79141C17.6071 4.54233 18.668 4.63758 19.6206 5.06282C20.5731 5.48807 21.3657 6.22031 21.8791 7.14932C22.3924 8.07833 22.5987 9.15385 22.467 10.214C22.3352 11.2741 21.8725 12.2616 21.1485 13.0276C21.8688 13.7923 22.3293 14.7764 22.4611 15.8329C22.5929 16.8894 22.389 17.9614 21.8798 18.8886C21.3705 19.8159 20.5834 20.5485 19.6361 20.977C18.6887 21.4055 17.6321 21.5068 16.6242 21.2657C16.3489 22.3124 15.7468 23.2369 14.9107 23.8965C14.0745 24.5561 13.0508 24.9143 11.9974 24.9158Z" fill="current"/>
<path d="M11.9986 17.4733C10.8375 17.4733 9.72396 17.012 8.90293 16.191C8.0819 15.37 7.62066 14.2564 7.62066 13.0953C7.62066 11.9342 8.0819 10.8207 8.90293 9.99965C9.72396 9.17863 10.8375 8.71738 11.9986 8.71738C13.1597 8.71738 14.2733 9.17863 15.0943 9.99965C15.9153 10.8207 16.3766 11.9342 16.3766 13.0953C16.3766 14.2564 15.9153 15.37 15.0943 16.191C14.2733 17.012 13.1597 17.4733 11.9986 17.4733ZM11.9986 10.9064C11.4181 10.9064 10.8613 11.137 10.4508 11.5475C10.0403 11.958 9.80963 12.5148 9.80963 13.0953C9.80963 13.6759 10.0403 14.2327 10.4508 14.6432C10.8613 15.0537 11.4181 15.2843 11.9986 15.2843C12.5792 15.2843 13.1359 15.0537 13.5465 14.6432C13.957 14.2327 14.1876 13.6759 14.1876 13.0953C14.1876 12.5148 13.957 11.958 13.5465 11.5475C13.1359 11.137 12.5792 10.9064 11.9986 10.9064ZM11.9986 26.2292C10.7955 26.2275 9.62637 25.8302 8.67144 25.0983C7.71651 24.3665 7.02883 23.3409 6.71442 22.1796C5.56288 22.4477 4.35547 22.3357 3.27291 21.8603C2.19035 21.3849 1.29088 20.5717 0.709119 19.5424C0.127361 18.5131 -0.105385 17.323 0.045719 16.1504C0.196823 14.9777 0.723648 13.8855 1.54734 13.0373C0.721462 12.1872 0.193894 11.092 0.0439675 9.9163C-0.105959 8.7406 0.12986 7.54801 0.715963 6.51785C1.30207 5.4877 2.20677 4.67567 3.29403 4.20387C4.3813 3.73207 5.59234 3.62601 6.74507 3.90163C7.0857 2.77338 7.78051 1.78477 8.72667 1.08209C9.67283 0.379413 10.8201 0 11.9986 0C13.1772 0 14.3244 0.379413 15.2706 1.08209C16.2167 1.78477 16.9115 2.77338 17.2522 3.90163C18.4053 3.62527 19.617 3.73095 20.7049 4.20275C21.7928 4.67455 22.698 5.48696 23.2843 6.51768C23.8706 7.5484 24.1062 8.74167 23.9557 9.91788C23.8053 11.0941 23.2768 12.1896 22.4499 13.0395C23.2726 13.8879 23.7985 14.9798 23.949 16.152C24.0996 17.3241 23.8667 18.5135 23.2851 19.5422C22.7035 20.571 21.8045 21.3839 20.7226 21.8592C19.6407 22.3346 18.4339 22.447 17.2828 22.1796C16.9684 23.3409 16.2807 24.3665 15.3258 25.0983C14.3709 25.8302 13.2017 26.2275 11.9986 26.2292ZM8.77753 18.6936L8.70967 20.8498C8.72201 21.7213 9.08007 22.5523 9.70507 23.1599C10.3301 23.7674 11.1708 24.1018 12.0424 24.0895C12.9139 24.0771 13.7449 23.7191 14.3525 23.0941C14.96 22.4691 15.2944 21.6283 15.2821 20.7568C15.2821 20.8038 15.2197 18.6936 15.2197 18.6936L16.9183 19.6896C17.6731 20.1143 18.5656 20.2218 19.3995 19.9884C20.2335 19.755 20.9406 19.1999 21.3652 18.4452C21.7899 17.6905 21.8974 16.798 21.664 15.964C21.4306 15.1301 20.8755 14.423 20.1208 13.9983L18.3543 13.0373L20.1208 12.0753C20.5037 11.8705 20.8418 11.5914 21.1154 11.2544C21.3891 10.9173 21.5927 10.529 21.7145 10.1123C21.8362 9.6955 21.8735 9.25865 21.8243 8.82729C21.7751 8.39592 21.6403 7.97871 21.4278 7.60009C21.2154 7.22146 20.9295 6.88903 20.5869 6.62227C20.2444 6.3555 19.8521 6.15976 19.4329 6.04651C19.0138 5.93325 18.5763 5.90476 18.146 5.9627C17.7157 6.02064 17.3013 6.16384 16.9271 6.38393L15.2821 7.34161V5.43391C15.2821 4.56308 14.9361 3.72792 14.3204 3.11215C13.7046 2.49638 12.8694 2.15045 11.9986 2.15045C11.1278 2.15045 10.2926 2.49638 9.67685 3.11215C9.06108 3.72792 8.71515 4.56308 8.71515 5.43391V7.33723L7.07341 6.38393C6.69917 6.16384 6.28477 6.02064 5.85449 5.9627C5.42421 5.90476 4.9867 5.93325 4.56756 6.04651C4.14843 6.15976 3.75611 6.3555 3.41357 6.62227C3.07103 6.88903 2.78516 7.22146 2.57269 7.60009C2.36022 7.97871 2.22543 8.39592 2.17622 8.82729C2.127 9.25865 2.16434 9.6955 2.28606 10.1123C2.40777 10.529 2.61141 10.9173 2.88506 11.2544C3.1587 11.5914 3.49685 11.8705 3.87969 12.0753L5.6462 13.0373L3.87969 13.9983C3.12497 14.423 2.56987 15.1301 2.33649 15.964C2.22094 16.3769 2.18784 16.8086 2.23911 17.2343C2.29037 17.66 2.42498 18.0715 2.63526 18.4452C2.84554 18.8189 3.12736 19.1475 3.46464 19.4123C3.80192 19.6771 4.18805 19.8728 4.60098 19.9884C5.43494 20.2218 6.32745 20.1143 7.08217 19.6896L8.77753 18.6936Z" fill="#585858"/>
</svg>
