<svg width="40" height="40" viewBox="0 0 40 40" fill="none" xmlns="http://www.w3.org/2000/svg">
<g clip-path="url(#clip0_326_5028)">
<path d="M31.9988 30.5868L25.7368 24.3248C27.3634 22.3354 28.1632 19.7968 27.9706 17.2343C27.7781 14.6718 26.608 12.2813 24.7024 10.5573C22.7968 8.83327 20.3014 7.90765 17.7324 7.97188C15.1635 8.03611 12.7175 9.08528 10.9004 10.9024C9.08333 12.7195 8.03416 15.1654 7.96993 17.7344C7.9057 20.3033 8.83132 22.7987 10.5553 24.7043C12.2793 26.61 14.6698 27.7801 17.2324 27.9726C19.7949 28.1651 22.3334 27.3654 24.3228 25.7388L30.5848 32.0008L31.9988 30.5868ZM17.9988 26.0008C16.4166 26.0008 14.8698 25.5316 13.5542 24.6525C12.2386 23.7735 11.2133 22.524 10.6078 21.0622C10.0023 19.6004 9.84384 17.9919 10.1525 16.44C10.4612 14.8882 11.2231 13.4627 12.342 12.3439C13.4608 11.2251 14.8862 10.4632 16.4381 10.1545C17.9899 9.84579 19.5985 10.0042 21.0603 10.6097C22.5221 11.2152 23.7715 12.2406 24.6506 13.5562C25.5296 14.8718 25.9988 16.4185 25.9988 18.0008C25.9964 20.1218 25.1528 22.1552 23.653 23.655C22.1533 25.1548 20.1198 25.9984 17.9988 26.0008Z" fill="black"/>
</g>
<defs>
<clipPath id="clip0_326_5028">
<rect width="24" height="24" fill="white" transform="translate(8 8)"/>
</clipPath>
</defs>
</svg>
