<svg width="100" height="100" viewBox="0 0 100 100" fill="none" xmlns="http://www.w3.org/2000/svg">
<mask id="mask0_191_5359" style="mask-type:alpha" maskUnits="userSpaceOnUse" x="0" y="0" width="100" height="100">
<circle cx="50" cy="50" r="50" fill="#D9D9D9"/>
</mask>
<g mask="url(#mask0_191_5359)">
<path d="M-0.122765 49.2863C6.11375 45.2428 13.2363 43.3869 20.3479 43.8843C23.5208 36.7181 28.5136 30.7196 34.7501 26.6761C40.9866 22.6326 48.1092 20.7767 55.2207 21.2741C58.3939 14.1085 63.3864 8.10944 69.6229 4.06593C75.8589 0.0227432 82.982 -1.83347 90.0941 -1.33642C93.2663 -8.50135 98.2593 -14.5007 104.496 -18.5443C105.726 -19.342 106.984 -20.0402 108.258 -20.6594C99.7579 -36.9491 81.1414 -42.51 66.5721 -33.0638C59.8938 -28.7339 55.223 -22.0008 52.9207 -14.3965C45.9053 -15.9596 38.3771 -14.7833 31.6998 -10.454C25.0214 -6.124 20.3501 0.609341 18.0484 8.2134C11.033 6.65022 3.50475 7.82655 -3.17309 12.1562C-9.85093 16.4859 -14.5222 23.2192 -16.8249 30.8239C-23.8399 29.2604 -31.3681 30.4367 -38.0459 34.7664C-52.6737 44.2505 -57.6795 65.2665 -49.2267 81.7078C-42.4178 94.9517 -28.9537 101.179 -16.3289 98.1464C-21.9384 79.9661 -15.4858 59.2471 -0.122765 49.2863Z" fill="#A1E092" fill-opacity="0.6"/>
<path d="M110.73 -14.6713C109.614 -14.1347 108.511 -13.5279 107.433 -12.829C100.755 -8.49905 96.0837 -1.76513 93.782 5.83892C86.7666 4.27575 79.2381 5.45151 72.5602 9.78116C65.8819 14.1111 61.2109 20.8451 58.9087 28.4494C51.8937 26.8859 44.3652 28.0617 37.6874 32.3914C31.009 36.7213 26.3385 43.4549 24.0358 51.0596C17.0209 49.4961 9.49237 50.6719 2.81453 55.0015C-10.141 63.4014 -15.5398 80.8457 -10.7338 96.1471C-10.1354 98.0534 -9.38256 99.9266 -8.46217 101.745C-7.34747 100.815 -6.18059 99.9414 -4.95017 99.1437C1.28635 95.1002 8.40894 93.2443 15.5204 93.7417C18.6934 86.5755 23.6862 80.577 29.9227 76.5335C36.1587 72.4903 43.2818 70.6341 50.3938 71.1311C53.566 63.9662 58.559 57.9668 64.7955 53.9233C71.0315 49.8801 78.1546 48.0239 85.2667 48.5209C88.4393 41.3557 93.4324 35.3563 99.6684 31.3131C115.032 21.352 134.236 25.4361 145.452 39.9817C154.103 29.2201 156.032 13.0112 149.224 -0.231537C141.394 -15.4613 124.765 -21.4125 110.73 -14.6713Z" fill="#86A8FE" fill-opacity="0.6"/>
<path d="M141.113 44.4237C131.715 32.0993 115.563 28.6275 102.608 37.027C95.9293 41.357 91.2589 48.0906 88.9566 55.695C81.9412 54.1318 74.4127 55.3075 67.7348 59.6372C61.0565 63.9672 56.3855 70.7011 54.0838 78.3051C47.0684 76.742 39.5403 77.9174 32.862 82.2474C26.1836 86.5774 21.5132 93.3109 19.2104 100.916C12.1955 99.3521 4.66698 100.528 -2.01087 104.858C-3.08876 105.556 -4.10815 106.326 -5.08021 107.143C-6.67321 108.483 -8.12275 109.972 -9.42002 111.586C-18.0709 122.347 -20.0003 138.556 -13.1914 151.8C-4.73862 168.241 13.9713 173.881 28.5991 164.396C35.277 160.067 39.9482 153.333 42.2496 145.729C49.2656 147.292 56.7936 146.116 63.472 141.786C70.1503 137.456 74.8211 130.723 77.123 123.118C84.1379 124.682 91.6665 123.506 98.3448 119.176C105.023 114.846 109.694 108.113 111.996 100.508C119.011 102.071 126.539 100.896 133.218 96.5659C147.786 87.1201 152.806 66.2343 144.494 49.8229C144.461 49.7574 144.432 49.6897 144.398 49.6245C143.432 47.7453 142.326 46.0145 141.113 44.4237Z" fill="#FF9393" fill-opacity="0.6"/>
</g>
</svg>
